<?xml version="1.0" encoding="iso-8859-1"?>
<!-- Generator: Adobe Illustrator 19.0.0, SVG Export Plug-In . SVG Version: 6.00 Build 0)  -->
<svg version="1.1" id="Capa_1" xmlns="http://www.w3.org/2000/svg" xmlns:xlink="http://www.w3.org/1999/xlink" x="0px" y="0px"
	 viewBox="0 0 511.998 511.998" style="enable-background:new 0 0 511.998 511.998;" xml:space="preserve">
<g>
	<g>
		<path d="M510.682,447.581L263.215,55.048c-3.115-4.958-11.298-4.966-14.43,0L1.319,447.581c-1.664,2.628-1.758,5.956-0.256,8.678
			c1.493,2.722,4.361,4.412,7.467,4.412h494.933c3.106,0,5.965-1.698,7.475-4.412C512.44,453.529,512.338,450.21,510.682,447.581z
			 M24,443.605l231.996-368l232.004,368H24z"/>
	</g>
</g>
<g>
	<g>
		<path d="M349.863,375.338H162.13c-4.71,0-8.533,3.814-8.533,8.533v34.133c0,4.719,3.823,8.533,8.533,8.533h187.733
			c4.719,0,8.533-3.823,8.533-8.533v-34.133C358.396,379.152,354.582,375.338,349.863,375.338z M341.33,409.471H170.663v-17.067
			H341.33V409.471z"/>
	</g>
</g>
<g>
	<g>
		<path d="M333.359,266.214c-1.886-6.758-3.84-13.739-5.257-20.608c-2.79-13.585,1.621-18.935,1.596-18.935
			c2.543-2.458,3.302-6.229,1.92-9.472c-1.382-3.243-4.727-5.325-8.149-5.188c-15.445,0.555-29.363,10.086-35.473,24.337
			c-1.698,4.028-2.586,7.927-3.379,11.366c-1.638,7.117-2.551,10.385-7.27,13.099c-3.004,1.775-6.741,1.775-9.122,0.418
			c-2.731-1.963-4.335-5.197-4.25-8.533c1.562-6.767,4.727-13.158,9.173-18.5c0.29-0.35,0.563-0.725,0.794-1.118
			c6.468-10.957,7.859-24.166,3.831-36.164c-3.285-10.078-7.979-19.644-13.867-28.322c-3.004-4.591-6.426-8.977-10.027-12.911
			c-1.015-1.143-2.731-2.586-4.599-4.036c-0.99-0.768-2.637-2.031-2.662-1.886c-2.022-4.198-7.049-5.982-11.247-4.045
			c-4.224,1.937-6.118,6.903-4.258,11.17c7.066,16.188-0.759,36.753-11.708,50.022c-4.83,5.99-10.078,11.733-15.155,17.28
			c-15.07,16.478-30.652,33.519-36.89,58.615c-6.178,23.569-3.115,48.316,8.764,69.922c13.15,22.161,36.301,36.975,61.926,39.637
			c3.405,0.256,6.818-1.434,8.44-4.54c1.621-3.089,1.195-6.861-1.092-9.515c-4.659-5.419-6.963-12.331-6.468-20.036
			c0-14.473,10.65-26.086,17.058-31.77c6.426,5.709,17.075,17.425,17.084,32.222c0.384,7.177-1.946,14.157-6.554,19.661
			c-2.355,2.816-2.654,6.827-0.734,9.95c1.579,2.569,4.361,4.07,7.279,4.07c0.64,0,1.28-0.077,1.937-0.23
			c14.993-3.473,28.937-10.778,40.26-21.043c16.777-14.916,26.283-36.326,26.078-58.47
			C341.765,296.26,337.49,280.985,333.359,266.214z M324.263,312.524c0.154,17.519-7.253,34.227-20.412,45.909
			c-4.378,3.977-9.224,7.398-14.413,10.197c0.64-3.422,0.879-6.895,0.691-10.359c0-29.833-28.203-48.973-29.397-49.775
			c-2.867-1.92-6.596-1.92-9.463,0c-1.203,0.802-29.397,19.942-29.38,49.203c-0.307,4.642,0.102,9.225,1.195,13.628
			c-13.346-5.197-24.798-14.711-32.137-27.068c-9.626-17.519-12.134-37.803-7.049-57.233c5.222-21.001,18.688-35.729,32.947-51.319
			c5.257-5.743,10.684-11.682,15.787-18.014c8.055-9.771,15.522-23.765,17.673-38.75c4.779,7.219,8.559,15.036,11.255,23.322
			c2.415,7.177,1.673,15.019-2.014,21.598c-6.084,7.509-10.368,16.435-12.399,25.865c-0.085,0.375-0.145,0.751-0.171,1.135
			c-0.725,9.438,3.601,18.731,11.93,24.653c8.371,4.941,18.748,4.941,27.042,0.043c11.273-6.511,13.508-16.222,15.292-24.03
			c0.7-3.038,1.357-5.905,2.449-8.508c1.468-3.43,3.738-6.383,6.528-8.678c-0.265,4.181,0.009,9.071,1.169,14.711
			c0,0.009,0,0.009,0,0.009c1.527,7.441,3.576,14.729,5.538,21.76C320.884,284.996,324.638,298.393,324.263,312.524z"/>
	</g>
</g>
<g>
</g>
<g>
</g>
<g>
</g>
<g>
</g>
<g>
</g>
<g>
</g>
<g>
</g>
<g>
</g>
<g>
</g>
<g>
</g>
<g>
</g>
<g>
</g>
<g>
</g>
<g>
</g>
<g>
</g>
</svg>
