<svg id="Layer_1" data-name="Layer 1" xmlns="http://www.w3.org/2000/svg" viewBox="0 0 512 409.34"><defs><style>.cls-1{fill: #808080;}</style></defs><title>fire-1</title><path class="cls-1" d="M574.78,489.22,327.32,96.69c-3.11-5-11.3-5-14.43,0L65.42,489.22a8.53,8.53,0,0,0,7.21,13.09H567.56a8.53,8.53,0,0,0,7.22-13.09Zm-486.68-4,232-368,232,368Z" transform="translate(-64.1 -92.97)"/><path class="cls-1" d="M414,417H226.23a8.53,8.53,0,0,0-8.53,8.53v34.13a8.53,8.53,0,0,0,8.53,8.53H414a8.53,8.53,0,0,0,8.53-8.53V425.51A8.52,8.52,0,0,0,414,417Zm-8.53,34.13H234.76V434H405.43Z" transform="translate(-64.1 -92.97)"/><path class="cls-1" d="M397.46,307.85c-1.89-6.76-3.84-13.74-5.26-20.61-2.79-13.59,1.62-18.93,1.6-18.93a8.53,8.53,0,0,0,1.92-9.47,8.62,8.62,0,0,0-8.15-5.19A40.33,40.33,0,0,0,352.1,278a66.94,66.94,0,0,0-3.38,11.37c-1.64,7.12-2.55,10.39-7.27,13.1a9.52,9.52,0,0,1-9.12.42,10.26,10.26,0,0,1-4.25-8.53,44.79,44.79,0,0,1,9.17-18.5,8.6,8.6,0,0,0,.79-1.12,43.77,43.77,0,0,0,3.83-36.16A112.79,112.79,0,0,0,328,210.23a102,102,0,0,0-10-12.91,37.26,37.26,0,0,0-4.6-4,17.27,17.27,0,0,0-2.66-1.89,8.53,8.53,0,0,0-15.5,7.13c7.07,16.19-.76,36.75-11.71,50-4.83,6-10.08,11.73-15.15,17.28-15.07,16.48-30.65,33.52-36.89,58.61a94.55,94.55,0,0,0,8.76,69.92A82.19,82.19,0,0,0,302.15,434a8.76,8.76,0,0,0,8.44-4.54,8.51,8.51,0,0,0-1.09-9.52,27.39,27.39,0,0,1-6.47-20c0-14.47,10.65-26.09,17.06-31.77,6.43,5.71,17.07,17.42,17.08,32.22A28.18,28.18,0,0,1,330.62,420a8.52,8.52,0,0,0,8.48,13.79,90.56,90.56,0,0,0,40.26-21,77.5,77.5,0,0,0,26.08-58.47C405.87,337.9,401.59,322.62,397.46,307.85Zm-9.1,46.31A60.61,60.61,0,0,1,368,400.07a72.92,72.92,0,0,1-14.41,10.2,43.5,43.5,0,0,0,.69-10.36c0-29.83-28.2-49-29.4-49.77a8.49,8.49,0,0,0-9.46,0c-1.2.8-29.4,19.94-29.38,49.2a44.33,44.33,0,0,0,1.2,13.63A64.72,64.72,0,0,1,255,385.9a77.5,77.5,0,0,1-7-57.23c5.22-21,18.69-35.73,32.95-51.32,5.26-5.74,10.68-11.68,15.79-18,8.06-9.77,15.52-23.76,17.67-38.75a96,96,0,0,1,11.25,23.32,26.73,26.73,0,0,1-2,21.6,62,62,0,0,0-12.4,25.87,7.37,7.37,0,0,0-.17,1.13A27.63,27.63,0,0,0,323,317.16a26.62,26.62,0,0,0,27,0c11.27-6.51,13.51-16.22,15.29-24a52.63,52.63,0,0,1,2.45-8.51,22.93,22.93,0,0,1,6.53-8.68,55.52,55.52,0,0,0,1.17,14.71h0c1.53,7.44,3.58,14.73,5.54,21.76C385,326.64,388.74,340,388.36,354.16Z" transform="translate(-64.1 -92.97)"/></svg>