<svg id="Layer_1" data-name="Layer 1" xmlns="http://www.w3.org/2000/svg" viewBox="0 0 475.55 475.52"><defs><style>.cls-1{fill: #808080;}</style></defs><title>location</title><path class="cls-1" d="M480.05,189.71a59.11,59.11,0,1,0-59.11,59.12A59.11,59.11,0,0,0,480.05,189.71Zm-104.22,0a45.11,45.11,0,1,1,45.11,45.12A45.11,45.11,0,0,1,375.84,189.71Z" transform="translate(-183.17 -59.88)"/><path class="cls-1" d="M658.26,525.9,601.19,376.3a7,7,0,0,0-6.54-4.5h-108c.66-1.08,1.32-2.12,2-3.2,41.56-68.8,62.47-129,62.17-178.86a129.86,129.86,0,0,0-259.71,0c-.3,49.92,20.61,110.11,62.17,178.9.66,1.09,1.32,2.14,2,3.2h-108a7,7,0,0,0-6.54,4.5L183.63,525.9a7,7,0,0,0,6.54,9.5H651.72a7,7,0,0,0,6.54-9.5ZM305.09,189.71a115.86,115.86,0,0,1,231.71,0h0c.6,99.43-92.36,222.07-115.86,251.48-23.5-29.4-116.46-152-115.86-251.52ZM415.61,456.83a7,7,0,0,0,10.66,0,742.86,742.86,0,0,0,51.6-71H589.83l9,23.5L380,487.1,302,385.78h62a742.86,742.86,0,0,0,51.61,71ZM379.78,502h0l130.51-46.4,50.62,65.77H325.35ZM252.06,385.78h32.32L366.15,492,283.57,521.4H200.33ZM578.63,521.4l-54.44-70.73,79.6-28.31,37.77,99Z" transform="translate(-183.17 -59.88)"/></svg>