<svg id="Layer_1" data-name="Layer 1" xmlns="http://www.w3.org/2000/svg" viewBox="0 0 497.15 497.15"><defs><style>.cls-1{fill: #808080;}</style></defs><title>logistics</title><path class="cls-1" d="M432.51,278.29a48,48,0,1,0-48,48A48,48,0,0,0,432.51,278.29Zm-80,0a32,32,0,1,1,32,32A32,32,0,0,1,352.51,278.29Z" transform="translate(-304.51 -197.14)"/><path class="cls-1" d="M735.48,252l11.31-11.31L758.11,252l-11.31,11.31Z" transform="translate(-304.51 -197.14)"/><path class="cls-1" d="M712.85,274.61l11.31-11.31,11.31,11.31-11.31,11.31Z" transform="translate(-304.51 -197.14)"/><path class="cls-1" d="M690.8,296.67l10.74-10.74,11.31,11.31L702.11,308Z" transform="translate(-304.51 -197.14)"/><path class="cls-1" d="M776.51,534.29H732.13a200.2,200.2,0,0,0,20.38-88,198.11,198.11,0,0,0-34.89-112.61q9.06-6.32,17.67-13.29l49.22,49.21,17.15-17.15-24-72,2.56-2.56a41.94,41.94,0,0,0-59.31-59.32l-2.58,2.58-72-24-17.14,17.15,49.22,49.22q-7,8.59-13.29,17.66A199.65,199.65,0,0,0,463.63,267.1a80,80,0,0,0-159.13,11.19v2.2a79.77,79.77,0,0,0,13.44,44.38l42.94,64.4a199.45,199.45,0,0,0,5,129h-5.38a23.94,23.94,0,0,0-8,46.53v17.47h-48v26.79a85.3,85.3,0,0,0,85.21,85.21h88.55a85.64,85.64,0,0,0,76.65-48.06,198.41,198.41,0,0,0,69.6-13.32v37.38a24,24,0,0,0,24,24h128a24,24,0,0,0,24-24v-112A24,24,0,0,0,776.51,534.29Zm-88,16h48v16h-48Zm-40-16H624.62a465.87,465.87,0,0,0,7.81-80H736.24a183.71,183.71,0,0,1-22.22,80Zm-88.25,94.38.25-14.38H525.45l-25.51-51a24,24,0,0,0,11.1-13h93.69C593.91,593.38,577.07,621.86,560.26,628.68ZM511,534.29A24,24,0,0,0,494,519a463.71,463.71,0,0,1-5.37-64.7H616.43a446.17,446.17,0,0,1-8.11,80Zm-142.22-96a184.06,184.06,0,0,1,4.72-34.82,22.9,22.9,0,0,0,30.07-7.4l25.18-37.78h51.61a465.86,465.86,0,0,0-7.81,80Zm127.94-80H608.37a452.35,452.35,0,0,1,8,80H488.66a446.22,446.22,0,0,1,8.09-80Zm55.76-96c14.22,0,28.84,16.1,40.58,44.11L587,312.49l10.43,5.22c2.72,7.72,5.19,15.9,7.36,24.59H500.34C512.84,292.61,533.35,262.29,552.51,262.29Zm88.64,59.38L614,308.1l5-4.94,28.11,7C645,314,643.06,317.8,641.15,321.67Zm-6.72,14.53-.2.43a20.85,20.85,0,0,0-1.45,5.66H621.21c-1.18-5-2.47-9.87-3.83-14.62Zm101.77,102.1H632.36a471,471,0,0,0-7.74-80h12.67a21.08,21.08,0,0,0,24.87,6.28l.44-.2,23.71,47.42,27-27.06L703,343.33c.43-.26.85-.55,1.28-.82a182.06,182.06,0,0,1,31.9,95.79Zm-47.58-86.57,7,28.11-5,4.94-13.57-27.14C681,355.74,684.84,353.79,688.62,351.73Zm93.58-7L747.5,310c4-3.62,8-7.34,11.82-11.18L765,293.1ZM750.56,222.29a25.94,25.94,0,0,1,18.34,44.28L748,287.48a293.07,293.07,0,0,1-92.13,62.38,5.28,5.28,0,0,1-6.94-6.93,293.18,293.18,0,0,1,62.38-92.14l20.9-20.9h0A25.81,25.81,0,0,1,750.56,222.29Zm-96.43-5.7,51.57,17.19-5.69,5.7c-3.85,3.85-7.56,7.8-11.18,11.82Zm1.34,79.19-41.41-10.36-8.78,8.78c-5.26-11.42-11.07-21-17.34-28.4A181.7,181.7,0,0,1,656.3,294.5c-.28.44-.57.86-.83,1.29ZM464.18,284.94a183.33,183.33,0,0,1,53.41-19.28c-14.11,16.72-25.82,43.4-33.76,76.63H439.45l11.62-17.42A79.61,79.61,0,0,0,464.18,284.94Zm-143.67-4.45v-2.2a64,64,0,0,1,128,0v2.2A63.81,63.81,0,0,1,437.75,316l-47.47,71.2c-2.58,3.87-9,3.87-11.56,0L331.25,316A63.85,63.85,0,0,1,320.51,280.49Zm48.21,173.8h104a483.16,483.16,0,0,0,5.1,64H383.19A182.22,182.22,0,0,1,368.71,454.29Zm-8.21,80h128a8,8,0,0,1,0,16h-128a8,8,0,0,1,0-16Zm8,32H483.56l24,48H397.45l-16-32H368.51Zm109.76,112H389.71a69.29,69.29,0,0,1-69.21-69.21V598.29h51.06l16,32H544.15A69.52,69.52,0,0,1,478.27,678.29Zm109.15-51.36c14.11-16.72,25.82-43.41,33.77-76.64H626a23.73,23.73,0,0,0-1.47,8v57.3A181.09,181.09,0,0,1,587.42,626.93Zm197.09,43.36a8,8,0,0,1-8,8h-128a8,8,0,0,1-8-8v-112a8,8,0,0,1,8-8h24v32h80v-32h24a8,8,0,0,1,8,8Z" transform="translate(-304.51 -197.14)"/><path class="cls-1" d="M752.51,646.29h16v16h-16Z" transform="translate(-304.51 -197.14)"/><path class="cls-1" d="M720.51,646.29h16v16h-16Z" transform="translate(-304.51 -197.14)"/><path class="cls-1" d="M432.51,582.29h16v16h-16Z" transform="translate(-304.51 -197.14)"/><path class="cls-1" d="M464.51,582.29h16v16h-16Z" transform="translate(-304.51 -197.14)"/><path class="cls-1" d="M400.51,582.29h16v16h-16Z" transform="translate(-304.51 -197.14)"/><path class="cls-1" d="M512.51,470.29h16v16h-16Z" transform="translate(-304.51 -197.14)"/><path class="cls-1" d="M576.51,470.29h16v16h-16Z" transform="translate(-304.51 -197.14)"/><path class="cls-1" d="M544.51,470.29h16v16h-16Z" transform="translate(-304.51 -197.14)"/><path class="cls-1" d="M576.51,406.29h16v16h-16Z" transform="translate(-304.51 -197.14)"/><path class="cls-1" d="M544.51,406.29h16v16h-16Z" transform="translate(-304.51 -197.14)"/><path class="cls-1" d="M512.51,406.29h16v16h-16Z" transform="translate(-304.51 -197.14)"/></svg>