<svg enable-background="new 0 0 24 24" height="512" viewBox="0 0 24 24" width="512" xmlns="http://www.w3.org/2000/svg"><path d="m19 24c-.068 0-.137-.014-.2-.042-.196-.085-4.8-2.144-4.8-6.351v-3.536c0-.212.135-.402.335-.472l4.5-1.571c.107-.037.223-.037.33 0l4.5 1.571c.2.07.335.26.335.472v3.536c0 4.208-4.604 6.266-4.8 6.351-.063.028-.132.042-.2.042zm-4-9.574v3.181c0 3.105 3.163 4.914 3.999 5.338.836-.425 4.001-2.242 4.001-5.338v-3.181l-4-1.396z"/><path d="m18.591 19.769c-.009 0-.019 0-.027-.001-.146-.008-.279-.078-.368-.193l-1.637-2.115c-.169-.219-.129-.533.09-.702.217-.169.532-.13.701.089l1.283 1.659 2.462-2.546c.191-.198.508-.203.707-.012.198.192.204.508.012.707l-2.863 2.961c-.096.098-.225.153-.36.153z"/><path d="m19.5 11c-.276 0-.5-.224-.5-.5v-4.441l-8.771 4.388c-.244.123-.547.024-.671-.224-.122-.246-.023-.547.224-.67l9.494-4.75c.154-.078.339-.069.486.022.148.091.238.252.238.425v5.25c0 .276-.224.5-.5.5z"/><path d="m9.994 20c-.08 0-.16-.019-.233-.058l-9.494-5c-.164-.086-.267-.256-.267-.442v-9.25c0-.173.09-.334.237-.425.146-.091.332-.1.486-.022l9.494 4.75c.169.085.276.258.276.447v9.5c0 .175-.092.337-.241.428-.079.048-.168.072-.258.072zm-8.994-5.802 8.494 4.473v-8.362l-8.494-4.25z"/><path d="m19.5 5.75c-.075 0-.151-.017-.224-.053l-9.282-4.638-9.27 4.638c-.245.122-.547.024-.671-.223-.123-.247-.024-.548.223-.671l9.494-4.75c.141-.07.307-.07.447 0l9.506 4.75c.247.124.347.424.224.671-.088.175-.264.276-.447.276z"/><path d="m5.043 11.739c-.276 0-.5-.224-.5-.5v-3.718c0-.189.107-.362.276-.447l9.494-4.75c.245-.122.547-.023.671.224.123.247.023.547-.224.671l-9.217 4.612v3.409c0 .276-.224.499-.5.499z"/><path d="m9.994 20c-.179 0-.352-.096-.441-.266-.13-.244-.037-.547.207-.676l2.006-1.064c.245-.129.547-.037.676.208.13.244.037.547-.207.676l-2.006 1.064c-.076.039-.156.058-.235.058z"/></svg>